<svg width="13" height="16" viewBox="0 0 13 16" fill="none" xmlns="http://www.w3.org/2000/svg">
<path d="M11.9023 3.431L8.569 0.0976562C8.5065 0.0351562 8.42188 0 8.33331 0H1.33331C0.597969 0 0 0.597969 0 1.33334V14.6667C0 15.402 0.597969 16 1.33334 16H10.6667C11.402 16 12 15.402 12 14.6667V3.66666C12 3.57812 11.9648 3.4935 11.9023 3.431ZM8.66666 1.13803L10.862 3.33334H9.33331C8.96581 3.33334 8.66666 3.03419 8.66666 2.66669V1.13803ZM11.3333 14.6667C11.3333 15.0342 11.0342 15.3333 10.6667 15.3333H1.33334C0.965844 15.3333 0.666687 15.0342 0.666687 14.6667V1.33334C0.666687 0.965844 0.965844 0.666687 1.33334 0.666687H8V2.66669C8 3.40203 8.59797 4 9.33334 4H11.3333V14.6667Z" fill="#E42115" stroke="#E42115" stroke-width="0.3"/>
<path d="M7.69953 9.78541C7.39094 9.54257 7.09766 9.29291 6.90234 9.0976C6.64844 8.84369 6.42219 8.5976 6.22559 8.36322C6.53225 7.41563 6.66669 6.92703 6.66669 6.6666C6.66669 5.56016 6.26694 5.33325 5.66669 5.33325C5.21062 5.33325 4.66669 5.57022 4.66669 6.6985C4.66669 7.19591 4.93916 7.79975 5.47919 8.50157C5.34703 8.90488 5.19175 9.37007 5.01728 9.89447C4.93328 10.1461 4.84216 10.3792 4.74578 10.5947C4.66734 10.6295 4.59116 10.665 4.51759 10.7018C4.25262 10.8343 4.001 10.9534 3.76759 11.0641C2.70313 11.568 2 11.9013 2 12.5595C2 13.0374 2.51922 13.3333 3 13.3333C3.61978 13.3333 4.55566 12.5054 5.23925 11.1109C5.94888 10.831 6.83106 10.6236 7.52734 10.4937C8.08528 10.9228 8.7015 11.3333 9 11.3333C9.8265 11.3333 10 10.8554 10 10.4547C10 9.66657 9.09959 9.66657 8.66666 9.66657C8.53222 9.6666 8.17156 9.70632 7.69953 9.78541ZM3 12.6666C2.80956 12.6666 2.68066 12.5768 2.66666 12.5595C2.66666 12.3232 3.37141 11.9892 4.05306 11.6663C4.09634 11.6458 4.14031 11.6253 4.18491 11.6041C3.68425 12.33 3.18913 12.6666 3 12.6666ZM5.33334 6.6985C5.33334 5.99994 5.55016 5.99994 5.66669 5.99994C5.90237 5.99994 6.00003 5.99994 6.00003 6.6666C6.00003 6.80722 5.90628 7.15878 5.73472 7.70763C5.47297 7.30463 5.33334 6.95925 5.33334 6.6985ZM5.58887 10.2812C5.60972 10.2233 5.62991 10.1647 5.64944 10.1054C5.77312 9.73432 5.88447 9.40097 5.98375 9.10085C6.12209 9.25319 6.27119 9.40913 6.43103 9.56894C6.49353 9.63144 6.64847 9.77207 6.85487 9.94816C6.444 10.0377 6.00684 10.1487 5.58887 10.2812ZM9.33334 10.4547C9.33334 10.6044 9.33334 10.6666 9.02409 10.6686C8.93328 10.649 8.72331 10.5253 8.46419 10.3489C8.55825 10.3385 8.62759 10.3333 8.66666 10.3333C9.15919 10.3333 9.29884 10.3814 9.33334 10.4547Z" fill="#E42115" stroke="#E42115" stroke-width="0.1"/>
</svg>
